<svg width="112" height="124" viewBox="0 0 112 124" fill="none" xmlns="http://www.w3.org/2000/svg">
<path id="Vector 329" opacity="0.8" d="M85.3017 119.926V84.086C85.3017 79.4911 89.8613 78.1126 92.1409 76.2747C94.4205 74.4368 124.511 66.6255 135.909 59.7332C147.307 52.8409 147.763 34.9209 139.556 18.8389C132.519 5.04874 129.84 5.44852 118.009 2.0763C113.548 0.804804 108.901 0.0987491 104.287 0.5847C54.6977 5.8084 11.1169 33.0757 4.14849 42.7322C-2.96865 52.5949 0.764117 63.3324 5.18436 76.6517C5.40486 77.3161 5.69366 77.9616 6.0981 78.5329C15.5165 91.8391 43.6551 90.4897 57.4907 89.1403C68.7975 88.0375 75.8794 106.448 78.007 115.791C79.4945 121.304 85.3017 128.748 85.3017 119.926Z" fill="#462723"/>
</svg>
