<svg width="117" height="128" viewBox="0 0 117 128" fill="none" xmlns="http://www.w3.org/2000/svg">
<path id="Vector 328" opacity="0.8" d="M87.3017 121.926V86.086C87.3017 81.4911 91.8613 80.1126 94.1409 78.2747C96.4205 76.4368 126.511 68.6255 137.909 61.7332C149.307 54.8409 149.763 36.9209 141.556 20.8389C134.519 7.04874 131.84 7.44852 120.009 4.0763C115.548 2.8048 110.901 2.09875 106.287 2.5847C56.6977 7.8084 13.1169 35.0757 6.1485 44.7322C-1.14616 54.8409 1.16455 66.5 7.51625 79.6532C16.2985 93.8972 45.3573 92.5188 59.4908 91.1403C70.7975 90.0375 77.8794 108.448 80.007 117.791C81.4945 123.304 87.3017 130.748 87.3017 121.926Z" stroke="#FF7562" stroke-width="3"/>
</svg>
