<svg width="20" height="19" viewBox="0 0 20 19" fill="none" xmlns="http://www.w3.org/2000/svg">
<path d="M6 5.99805H14M6 9.99805H12M16 0.998047C16.7956 0.998047 17.5587 1.31412 18.1213 1.87673C18.6839 2.43934 19 3.2024 19 3.99805V11.998C19 12.7937 18.6839 13.5568 18.1213 14.1194C17.5587 14.682 16.7956 14.998 16 14.998H11L6 17.998V14.998H4C3.20435 14.998 2.44129 14.682 1.87868 14.1194C1.31607 13.5568 1 12.7937 1 11.998V3.99805C1 3.2024 1.31607 2.43934 1.87868 1.87673C2.44129 1.31412 3.20435 0.998047 4 0.998047H16Z" stroke="#918A89" stroke-width="2" stroke-linecap="round" stroke-linejoin="round"/>
</svg>
