<svg width="21" height="22" viewBox="0 0 21 22" fill="none" xmlns="http://www.w3.org/2000/svg">
<path d="M4.12821 21.9843C3.76348 21.985 3.40029 21.9371 3.04821 21.8418C1.99138 21.5405 1.09478 20.8369 0.550754 19.882C0.00672783 18.9272 -0.14138 17.7971 0.138205 16.7343L1.8857 10.1043C2.0236 9.57049 2.26637 9.06942 2.59987 8.63033C2.93337 8.19124 3.35093 7.82293 3.82821 7.54684C4.29443 7.27681 4.8096 7.10196 5.34387 7.03244C5.87815 6.96292 6.4209 7.00011 6.94071 7.14184C7.49193 7.29358 8.00574 7.55784 8.44978 7.91798C8.89382 8.27811 9.25845 8.72632 9.52071 9.23434H11.4707C11.7302 8.72271 12.0938 8.27094 12.538 7.90802C12.9823 7.54509 13.4976 7.27901 14.0507 7.12684C14.5705 6.98511 15.1133 6.94792 15.6475 7.01744C16.1818 7.08696 16.697 7.26181 17.1632 7.53184C17.6402 7.80826 18.0576 8.17668 18.391 8.61571C18.7245 9.05475 18.9674 9.55565 19.1057 10.0893L20.8532 16.7343C21.137 17.8002 20.99 18.935 20.4441 19.8934C19.8983 20.8519 18.9972 21.5572 17.9357 21.8568C17.4159 21.9986 16.8731 22.0358 16.3389 21.9662C15.8046 21.8967 15.2894 21.7219 14.8232 21.4518C14.3459 21.1758 13.9284 20.8074 13.5949 20.3684C13.2614 19.9293 13.0186 19.4282 12.8807 18.8943L12.7457 18.2343H8.24571L8.07321 18.8793C7.93531 19.4132 7.69254 19.9143 7.35904 20.3534C7.02554 20.7924 6.60799 21.1608 6.13071 21.4368C5.52131 21.7883 4.83165 21.9769 4.12821 21.9843ZM5.86821 8.48434C5.41561 8.48588 4.97115 8.60475 4.57821 8.82934C4.27273 9.00763 4.00549 9.24451 3.79183 9.52638C3.57817 9.80825 3.42231 10.1296 3.3332 10.4718L1.5857 17.1018C1.40284 17.7849 1.49524 18.5124 1.84304 19.1281C2.19084 19.7438 2.76628 20.1984 3.44571 20.3943C3.77383 20.4838 4.11645 20.5074 4.45374 20.4636C4.79103 20.4199 5.11629 20.3096 5.41071 20.1393C5.71644 19.9614 5.98388 19.7246 6.19758 19.4427C6.41127 19.1608 6.56698 18.8393 6.65571 18.4968L7.12071 16.7343H13.8707L14.3282 18.4968C14.5097 19.1874 14.9573 19.778 15.5732 20.1393C15.8691 20.3095 16.1956 20.4196 16.5341 20.4633C16.8725 20.5071 17.2163 20.4836 17.5457 20.3943C18.2259 20.2002 18.8021 19.7455 19.149 19.129C19.4958 18.5125 19.5854 17.784 19.3982 17.1018L17.6507 10.4718C17.5644 10.1294 17.4105 9.80761 17.198 9.52553C16.9854 9.24345 16.7186 9.00674 16.4132 8.82934C16.1173 8.65922 15.7908 8.54913 15.4524 8.50537C15.1139 8.46161 14.7701 8.48505 14.4407 8.57434C14.0333 8.69047 13.6596 8.90211 13.3504 9.19169C13.0413 9.48127 12.8057 9.84043 12.6632 10.2393L12.4832 10.7343H8.50821L8.32821 10.2393C8.18447 9.8399 7.94755 9.48048 7.63712 9.19092C7.32668 8.90135 6.95167 8.68998 6.54321 8.57434C6.3231 8.51499 6.09617 8.48474 5.86821 8.48434Z" fill="#918A89"/>
<path d="M5.99573 14.4844C5.69906 14.4844 5.40905 14.3964 5.16237 14.2316C4.9157 14.0668 4.72344 13.8325 4.60991 13.5584C4.49638 13.2843 4.46667 12.9827 4.52455 12.6917C4.58243 12.4008 4.72529 12.1335 4.93507 11.9237C5.14485 11.7139 5.41212 11.5711 5.70309 11.5132C5.99406 11.4553 6.29566 11.485 6.56975 11.5986C6.84384 11.7121 7.07811 11.9043 7.24293 12.151C7.40776 12.3977 7.49573 12.6877 7.49573 12.9844C7.49573 13.3822 7.33769 13.7637 7.05639 14.045C6.77508 14.3263 6.39355 14.4844 5.99573 14.4844Z" fill="#918A89"/>
<path d="M14.9957 12.2344C15.4099 12.2344 15.7457 11.8986 15.7457 11.4844C15.7457 11.0702 15.4099 10.7344 14.9957 10.7344C14.5815 10.7344 14.2457 11.0702 14.2457 11.4844C14.2457 11.8986 14.5815 12.2344 14.9957 12.2344Z" fill="#918A89"/>
<path d="M14.9957 15.2344C15.4099 15.2344 15.7457 14.8986 15.7457 14.4844C15.7457 14.0702 15.4099 13.7344 14.9957 13.7344C14.5815 13.7344 14.2457 14.0702 14.2457 14.4844C14.2457 14.8986 14.5815 15.2344 14.9957 15.2344Z" fill="#918A89"/>
<path d="M13.4957 13.7344C13.9099 13.7344 14.2457 13.3986 14.2457 12.9844C14.2457 12.5702 13.9099 12.2344 13.4957 12.2344C13.0815 12.2344 12.7457 12.5702 12.7457 12.9844C12.7457 13.3986 13.0815 13.7344 13.4957 13.7344Z" fill="#918A89"/>
<path d="M16.4957 13.7344C16.9099 13.7344 17.2457 13.3986 17.2457 12.9844C17.2457 12.5702 16.9099 12.2344 16.4957 12.2344C16.0815 12.2344 15.7457 12.5702 15.7457 12.9844C15.7457 13.3986 16.0815 13.7344 16.4957 13.7344Z" fill="#918A89"/>
<path d="M8.80823 6.2339L7.68323 5.23641C8.03513 4.83738 8.46792 4.5178 8.95284 4.29891C9.43775 4.08001 9.96369 3.9668 10.4957 3.9668C11.0278 3.9668 11.5537 4.08001 12.0386 4.29891C12.5235 4.5178 12.9563 4.83738 13.3082 5.23641L12.1832 6.2339C11.9721 5.99449 11.7124 5.80274 11.4215 5.6714C11.1305 5.54007 10.8149 5.47214 10.4957 5.47214C10.1765 5.47214 9.86094 5.54007 9.56999 5.6714C9.27904 5.80274 9.01937 5.99449 8.80823 6.2339Z" fill="#918A89"/>
<path d="M14.4332 4.26162C13.9406 3.70299 13.3347 3.25558 12.6558 2.94912C11.9769 2.64266 11.2406 2.48417 10.4957 2.48417C9.75088 2.48417 9.01456 2.64266 8.33568 2.94912C7.6568 3.25558 7.0509 3.70299 6.55823 4.26162L5.43323 3.27162C6.06666 2.55338 6.84568 1.97814 7.71852 1.58412C8.59137 1.19011 9.53807 0.986328 10.4957 0.986328C11.4534 0.986328 12.4001 1.19011 13.2729 1.58412C14.1458 1.97814 14.9248 2.55338 15.5582 3.27162L14.4332 4.26162Z" fill="#918A89"/>
</svg>
