<svg width="33" height="8" viewBox="0 0 33 8" fill="none" xmlns="http://www.w3.org/2000/svg">
<g id="Group 8837">
<g id="Group">
<path id="Vector" d="M13.7273 5H3.54545C2.14545 5 1 6.14545 1 7.54545V22.8182L4.81818 19H11.1818V17.7273C11.1818 14.9273 13.46 12.6364 16.2727 12.6364V7.54545C16.2727 6.14545 15.1273 5 13.7273 5ZM13.7273 8.81818H11.8182C11.3855 10.3327 10.5964 11.7455 9.50182 12.9673L9.47636 12.9927L11.08 14.5836L10.6091 15.8691L8.63636 13.9091L5.45455 17.0909L4.57636 16.1618L7.79636 12.9927C7.01828 12.1317 6.38242 11.1521 5.91273 10.0909H7.17273C7.56727 10.8545 8.05091 11.58 8.63636 12.2291C9.52749 11.2399 10.2074 10.0792 10.6345 8.81818H3.54545V7.54545H8V6.27273H9.27273V7.54545H13.7273V8.81818ZM26.4545 15.1818H16.2727C14.8727 15.1818 13.7273 16.3273 13.7273 17.7273V26.6364C13.7273 28.0364 14.8727 29.1818 16.2727 29.1818H25.1818L29 33V17.7273C29 16.3273 27.8545 15.1818 26.4545 15.1818ZM24.7109 27.9091L23.6291 25.0455H19.0982L18.0291 27.9091H16.12L20.4091 16.4545H22.3182L26.62 27.9091H24.7109ZM21.3636 19L22.9164 23.1364H19.8236L21.3636 19Z" fill="#650C01"/>
</g>
</g>
</svg>
